<?xml version="1.0" encoding="UTF-8" standalone="no"?>
<!DOCTYPE svg PUBLIC "-//W3C//DTD SVG 1.1//EN" "http://www.w3.org/Graphics/SVG/1.1/DTD/svg11.dtd">
<svg width="100%" height="100%" viewBox="0 0 620 621" version="1.1" xmlns="http://www.w3.org/2000/svg" xmlns:xlink="http://www.w3.org/1999/xlink" xml:space="preserve" xmlns:serif="http://www.serif.com/" style="fill-rule:evenodd;clip-rule:evenodd;stroke-linecap:round;stroke-linejoin:round;stroke-miterlimit:1.5;">
    <g id="rightbrain" transform="matrix(1.08574,0,0,1.08574,2.24981,-15.7994)">
        <path d="M242,67C267.626,43.812 313.64,58.635 324,98C358.233,107.11 375.714,132.188 372,160C407.799,183.049 415.214,225.688 404,252C425.265,278.44 420.193,305.262 401,327C355.876,289.324 332.285,278.541 296.842,309.921C263.036,370.109 327.968,393.074 371,433C369.55,458.213 344.406,478.825 318,473C302.7,504.398 263.427,507.676 242,482L242,67Z" style="fill:rgb(0,96,69);stroke:rgb(0,96,69);stroke-width:23.03px;"/>
    </g>
    <g id="person">
        <g>
            <path d="M369,355L438,408L504,354" style="fill:none;stroke:rgb(0,96,69);stroke-width:55px;"/>
            <path d="M499,581L501,350C518.441,332.169 571.196,332.149 582,375L582,581L499,581Z" style="fill:rgb(0,96,69);stroke:rgb(0,96,69);stroke-width:45px;"/>
            <g transform="matrix(1,0,0,1,10,5)">
                <path d="M526,278C480.076,278 483.254,208 523,208C568.924,208 571.924,278 526,278Z" style="fill:rgb(0,96,69);stroke:rgb(0,96,69);stroke-width:45px;"/>
            </g>
        </g>
    </g>
    <g id="leftbrain" transform="matrix(1.0819,0,0,1.0819,-2.7356,-13.7191)">
        <g>
            <path d="M103,321C74.923,308.674 60.96,350.007 40,323C22.584,300.56 22.783,262.719 45,252C25.2,230.77 35.204,174.613 76,168C59.708,125 98.098,93.518 132,99C139.323,52.71 189.108,47.624 211,72" style="fill:none;stroke:rgb(0,96,69);stroke-width:23.11px;"/>
            <path d="M67,268C58.678,262.61 52.694,262.762 45,252" style="fill:none;stroke:rgb(0,96,69);stroke-width:23.11px;"/>
            <path d="M152,297C152.892,283.547 148.595,270.071 138,263C121.7,252.121 96.864,251.039 95,230" style="fill:none;stroke:rgb(0,96,69);stroke-width:23.11px;"/>
            <path d="M120,184C115.817,169.27 96.375,163.677 76,168" style="fill:none;stroke:rgb(0,96,69);stroke-width:23.11px;"/>
            <path d="M149,129C139.626,122.238 131.3,111.22 132,99" style="fill:none;stroke:rgb(0,96,69);stroke-width:23.11px;"/>
            <path d="M41,323C12.093,354.972 28.768,409.24 76,414" style="fill:none;stroke:rgb(0,96,69);stroke-width:23.11px;"/>
            <path d="M88,398C60.333,421.333 68.374,477.719 128,471" style="fill:none;stroke:rgb(0,96,69);stroke-width:23.11px;"/>
            <path d="M122,370C142,375 155,370 155,370" style="fill:none;stroke:rgb(0,96,69);stroke-width:23.11px;"/>
            <path d="M211,72L211,471C211,471 191.226,518.945 139,485C111.658,457.394 149.842,417.496 169.564,417.436C161.117,389.093 152,369 152,369C152,369 169.757,362.134 176,352" style="fill:none;stroke:rgb(0,96,69);stroke-width:23.11px;"/>
            <path d="M166,191C161.668,215.036 175.332,246.036 211,241.674" style="fill:none;stroke:rgb(0,96,69);stroke-width:23.11px;"/>
        </g>
    </g>
</svg>
