<?xml version="1.0" encoding="UTF-8" standalone="no"?>
<!DOCTYPE svg PUBLIC "-//W3C//DTD SVG 1.1//EN" "http://www.w3.org/Graphics/SVG/1.1/DTD/svg11.dtd">
<svg width="100%" height="100%" viewBox="0 0 2385 620" version="1.1" xmlns="http://www.w3.org/2000/svg" xmlns:xlink="http://www.w3.org/1999/xlink" xml:space="preserve" xmlns:serif="http://www.serif.com/" style="fill-rule:evenodd;clip-rule:evenodd;stroke-linecap:round;stroke-linejoin:round;stroke-miterlimit:1.5;">
    <g id="person" transform="matrix(1,0,0,1,0,-1)">
        <g>
            <path d="M499,581L501,350C518.441,332.169 571.196,332.149 582,375L582,581L499,581Z" style="fill:rgb(0,96,69);stroke:rgb(0,96,69);stroke-width:45px;"/>
            <g transform="matrix(1,0,0,1,10,5)">
                <path d="M526,278C480.076,278 483.254,208 523,208C568.924,208 571.924,278 526,278Z" style="fill:rgb(0,96,69);stroke:rgb(0,96,69);stroke-width:45px;"/>
            </g>
            <g id="rightbrain" transform="matrix(1.08574,0,0,1.08574,2.24981,-15.7994)">
                <path d="M242,67C267.626,43.812 313.64,58.635 324,98C358.233,107.11 375.714,132.188 372,160C407.799,183.049 415.214,225.688 404,252C425.265,278.44 420.193,305.262 401,327C355.876,289.324 332.285,278.541 296.842,309.921C263.036,370.109 327.968,393.074 371,433C369.55,458.213 344.406,478.825 318,473C302.7,504.398 263.427,507.676 242,482L242,67Z" style="fill:rgb(0,96,69);stroke:rgb(0,96,69);stroke-width:23.03px;"/>
            </g>
        </g>
    </g>
    <g id="leftbrain" transform="matrix(1.0819,0,0,1.0819,-2.7356,-14.7191)">
        <g>
            <path d="M103,321C74.923,308.674 60.96,350.007 40,323C22.584,300.56 22.783,262.719 45,252C25.2,230.77 35.204,174.613 76,168C59.708,125 98.098,93.518 132,99C139.323,52.71 189.108,47.624 211,72" style="fill:none;stroke:rgb(0,96,69);stroke-width:23.11px;"/>
            <g transform="matrix(0.924296,0,0,0.924296,2.52851,12.6805)">
                <path d="M369,355L438,408L504,354" style="fill:none;stroke:rgb(0,96,69);stroke-width:55px;"/>
            </g>
            <path d="M67,268C58.678,262.61 52.694,262.762 45,252" style="fill:none;stroke:rgb(0,96,69);stroke-width:23.11px;"/>
            <path d="M152,297C152.892,283.547 148.595,270.071 138,263C121.7,252.121 96.864,251.039 95,230" style="fill:none;stroke:rgb(0,96,69);stroke-width:23.11px;"/>
            <path d="M120,184C115.817,169.27 96.375,163.677 76,168" style="fill:none;stroke:rgb(0,96,69);stroke-width:23.11px;"/>
            <path d="M149,129C139.626,122.238 131.3,111.22 132,99" style="fill:none;stroke:rgb(0,96,69);stroke-width:23.11px;"/>
            <path d="M41,323C12.093,354.972 28.768,409.24 76,414" style="fill:none;stroke:rgb(0,96,69);stroke-width:23.11px;"/>
            <path d="M88,398C60.333,421.333 68.374,477.719 128,471" style="fill:none;stroke:rgb(0,96,69);stroke-width:23.11px;"/>
            <path d="M122,370C142,375 155,370 155,370" style="fill:none;stroke:rgb(0,96,69);stroke-width:23.11px;"/>
            <g transform="matrix(1,0,0,1,0,4.62148)">
                <path d="M211,72L211,471C211,471 191.226,518.945 139,485C111.658,457.394 149.842,417.496 169.564,417.436C161.117,389.093 152,369 152,369C152,369 169.757,362.134 176,352" style="fill:none;stroke:rgb(0,96,69);stroke-width:23.11px;"/>
            </g>
            <path d="M166,191C161.668,215.036 175.332,246.036 211,241.674" style="fill:none;stroke:rgb(0,96,69);stroke-width:23.11px;"/>
        </g>
    </g>
    <g transform="matrix(1.03729,0,0,1.03729,-38.0559,4.40362)">
        <g transform="matrix(1.84255,0,0,1.84255,-499.376,10.2392)">
            <g transform="matrix(156,0,0,156,648.745,133.503)">
                <path d="M0.271,-0.251C0.271,-0.168 0.253,-0.103 0.218,-0.057C0.183,-0.011 0.136,0.012 0.077,0.012C0.05,0.012 0.027,0.008 0.01,-0L0.01,-0.081C0.027,-0.068 0.05,-0.062 0.078,-0.062C0.152,-0.062 0.189,-0.125 0.189,-0.25L0.189,-0.7L0.271,-0.7L0.271,-0.251Z" style="fill:rgb(0,96,69);fill-rule:nonzero;"/>
            </g>
            <g transform="matrix(156,0,0,156,704.426,133.503)">
                <path d="M0.483,-0.23L0.13,-0.23C0.131,-0.174 0.146,-0.131 0.175,-0.101C0.203,-0.071 0.243,-0.056 0.293,-0.056C0.349,-0.056 0.401,-0.074 0.448,-0.111L0.448,-0.036C0.404,-0.004 0.346,0.012 0.274,0.012C0.203,0.012 0.148,-0.011 0.107,-0.056C0.067,-0.102 0.047,-0.166 0.047,-0.248C0.047,-0.326 0.069,-0.389 0.113,-0.438C0.157,-0.487 0.212,-0.512 0.277,-0.512C0.343,-0.512 0.393,-0.491 0.429,-0.448C0.465,-0.406 0.483,-0.347 0.483,-0.272L0.483,-0.23ZM0.401,-0.298C0.401,-0.344 0.389,-0.38 0.367,-0.406C0.345,-0.431 0.315,-0.444 0.276,-0.444C0.238,-0.444 0.206,-0.431 0.18,-0.404C0.153,-0.377 0.137,-0.341 0.131,-0.298L0.401,-0.298Z" style="fill:rgb(0,96,69);fill-rule:nonzero;"/>
            </g>
            <g transform="matrix(156,0,0,156,786.006,133.503)">
                <path d="M0.051,-0.018L0.051,-0.104C0.094,-0.072 0.142,-0.056 0.195,-0.056C0.265,-0.056 0.3,-0.079 0.3,-0.126C0.3,-0.139 0.297,-0.151 0.291,-0.16C0.285,-0.169 0.277,-0.177 0.267,-0.185C0.257,-0.192 0.245,-0.198 0.231,-0.204C0.217,-0.21 0.202,-0.215 0.186,-0.222C0.164,-0.23 0.144,-0.239 0.128,-0.248C0.111,-0.257 0.097,-0.267 0.086,-0.279C0.074,-0.29 0.066,-0.303 0.06,-0.317C0.055,-0.331 0.052,-0.348 0.052,-0.367C0.052,-0.391 0.057,-0.411 0.068,-0.429C0.079,-0.448 0.093,-0.463 0.111,-0.475C0.129,-0.487 0.149,-0.496 0.172,-0.502C0.195,-0.509 0.219,-0.512 0.243,-0.512C0.286,-0.512 0.325,-0.504 0.359,-0.489L0.359,-0.408C0.323,-0.432 0.28,-0.444 0.232,-0.444C0.217,-0.444 0.204,-0.443 0.192,-0.439C0.18,-0.436 0.17,-0.431 0.161,-0.425C0.152,-0.419 0.146,-0.411 0.141,-0.403C0.136,-0.394 0.134,-0.384 0.134,-0.374C0.134,-0.361 0.136,-0.35 0.141,-0.341C0.146,-0.333 0.153,-0.325 0.162,-0.318C0.171,-0.311 0.182,-0.305 0.195,-0.299C0.208,-0.294 0.223,-0.288 0.239,-0.281C0.261,-0.273 0.281,-0.264 0.299,-0.255C0.316,-0.246 0.331,-0.236 0.344,-0.225C0.356,-0.214 0.366,-0.201 0.372,-0.186C0.379,-0.171 0.382,-0.154 0.382,-0.134C0.382,-0.109 0.377,-0.088 0.366,-0.069C0.355,-0.051 0.34,-0.036 0.322,-0.024C0.304,-0.012 0.283,-0.003 0.259,0.003C0.236,0.009 0.211,0.012 0.185,0.012C0.133,0.012 0.089,0.002 0.051,-0.018Z" style="fill:rgb(0,96,69);fill-rule:nonzero;"/>
            </g>
            <g transform="matrix(156,0,0,156,852.2,133.503)">
                <path d="M0.051,-0.018L0.051,-0.104C0.094,-0.072 0.142,-0.056 0.195,-0.056C0.265,-0.056 0.3,-0.079 0.3,-0.126C0.3,-0.139 0.297,-0.151 0.291,-0.16C0.285,-0.169 0.277,-0.177 0.267,-0.185C0.257,-0.192 0.245,-0.198 0.231,-0.204C0.217,-0.21 0.202,-0.215 0.186,-0.222C0.164,-0.23 0.144,-0.239 0.128,-0.248C0.111,-0.257 0.097,-0.267 0.086,-0.279C0.074,-0.29 0.066,-0.303 0.06,-0.317C0.055,-0.331 0.052,-0.348 0.052,-0.367C0.052,-0.391 0.057,-0.411 0.068,-0.429C0.079,-0.448 0.093,-0.463 0.111,-0.475C0.129,-0.487 0.149,-0.496 0.172,-0.502C0.195,-0.509 0.219,-0.512 0.243,-0.512C0.286,-0.512 0.325,-0.504 0.359,-0.489L0.359,-0.408C0.323,-0.432 0.28,-0.444 0.232,-0.444C0.217,-0.444 0.204,-0.443 0.192,-0.439C0.18,-0.436 0.17,-0.431 0.161,-0.425C0.152,-0.419 0.146,-0.411 0.141,-0.403C0.136,-0.394 0.134,-0.384 0.134,-0.374C0.134,-0.361 0.136,-0.35 0.141,-0.341C0.146,-0.333 0.153,-0.325 0.162,-0.318C0.171,-0.311 0.182,-0.305 0.195,-0.299C0.208,-0.294 0.223,-0.288 0.239,-0.281C0.261,-0.273 0.281,-0.264 0.299,-0.255C0.316,-0.246 0.331,-0.236 0.344,-0.225C0.356,-0.214 0.366,-0.201 0.372,-0.186C0.379,-0.171 0.382,-0.154 0.382,-0.134C0.382,-0.109 0.377,-0.088 0.366,-0.069C0.355,-0.051 0.34,-0.036 0.322,-0.024C0.304,-0.012 0.283,-0.003 0.259,0.003C0.236,0.009 0.211,0.012 0.185,0.012C0.133,0.012 0.089,0.002 0.051,-0.018Z" style="fill:rgb(0,96,69);fill-rule:nonzero;"/>
            </g>
            <g transform="matrix(156,0,0,156,918.393,133.503)">
                <path d="M0.158,-0.7L0.143,-0.482L0.087,-0.482L0.072,-0.7L0.158,-0.7Z" style="fill:rgb(0,96,69);fill-rule:nonzero;"/>
            </g>
            <g transform="matrix(156,0,0,156,954.27,133.503)">
                <path d="M0.051,-0.018L0.051,-0.104C0.094,-0.072 0.142,-0.056 0.195,-0.056C0.265,-0.056 0.3,-0.079 0.3,-0.126C0.3,-0.139 0.297,-0.151 0.291,-0.16C0.285,-0.169 0.277,-0.177 0.267,-0.185C0.257,-0.192 0.245,-0.198 0.231,-0.204C0.217,-0.21 0.202,-0.215 0.186,-0.222C0.164,-0.23 0.144,-0.239 0.128,-0.248C0.111,-0.257 0.097,-0.267 0.086,-0.279C0.074,-0.29 0.066,-0.303 0.06,-0.317C0.055,-0.331 0.052,-0.348 0.052,-0.367C0.052,-0.391 0.057,-0.411 0.068,-0.429C0.079,-0.448 0.093,-0.463 0.111,-0.475C0.129,-0.487 0.149,-0.496 0.172,-0.502C0.195,-0.509 0.219,-0.512 0.243,-0.512C0.286,-0.512 0.325,-0.504 0.359,-0.489L0.359,-0.408C0.323,-0.432 0.28,-0.444 0.232,-0.444C0.217,-0.444 0.204,-0.443 0.192,-0.439C0.18,-0.436 0.17,-0.431 0.161,-0.425C0.152,-0.419 0.146,-0.411 0.141,-0.403C0.136,-0.394 0.134,-0.384 0.134,-0.374C0.134,-0.361 0.136,-0.35 0.141,-0.341C0.146,-0.333 0.153,-0.325 0.162,-0.318C0.171,-0.311 0.182,-0.305 0.195,-0.299C0.208,-0.294 0.223,-0.288 0.239,-0.281C0.261,-0.273 0.281,-0.264 0.299,-0.255C0.316,-0.246 0.331,-0.236 0.344,-0.225C0.356,-0.214 0.366,-0.201 0.372,-0.186C0.379,-0.171 0.382,-0.154 0.382,-0.134C0.382,-0.109 0.377,-0.088 0.366,-0.069C0.355,-0.051 0.34,-0.036 0.322,-0.024C0.304,-0.012 0.283,-0.003 0.259,0.003C0.236,0.009 0.211,0.012 0.185,0.012C0.133,0.012 0.089,0.002 0.051,-0.018Z" style="fill:rgb(0,96,69);fill-rule:nonzero;"/>
            </g>
        </g>
        <g transform="matrix(1,0,0,1,5.5482,165)">
            <g transform="matrix(287.438,0,0,287.438,677.627,321.254)">
                <path d="M0.08,-0L0.08,-0.7L0.335,-0.7C0.413,-0.7 0.473,-0.686 0.515,-0.657C0.557,-0.629 0.578,-0.588 0.578,-0.536C0.578,-0.498 0.565,-0.465 0.54,-0.437C0.514,-0.409 0.482,-0.389 0.442,-0.378L0.442,-0.376C0.492,-0.37 0.531,-0.351 0.561,-0.321C0.591,-0.29 0.606,-0.253 0.606,-0.209C0.606,-0.145 0.583,-0.094 0.537,-0.056C0.491,-0.019 0.429,-0 0.349,-0L0.08,-0ZM0.238,-0.584L0.238,-0.418L0.307,-0.418C0.34,-0.418 0.365,-0.426 0.384,-0.442C0.403,-0.457 0.412,-0.479 0.412,-0.507C0.412,-0.558 0.374,-0.584 0.297,-0.584L0.238,-0.584ZM0.238,-0.301L0.238,-0.116L0.323,-0.116C0.36,-0.116 0.388,-0.125 0.409,-0.142C0.43,-0.159 0.44,-0.182 0.44,-0.211C0.44,-0.239 0.43,-0.261 0.409,-0.277C0.389,-0.293 0.361,-0.301 0.324,-0.301L0.238,-0.301Z" style="fill:rgb(0,79,59);fill-rule:nonzero;"/>
            </g>
            <g transform="matrix(287.438,0,0,287.438,861.907,321.254)">
                <path d="M0.391,-0.361C0.373,-0.371 0.351,-0.376 0.326,-0.376C0.293,-0.376 0.266,-0.364 0.248,-0.339C0.229,-0.315 0.219,-0.281 0.219,-0.239L0.219,-0L0.065,-0L0.065,-0.5L0.219,-0.5L0.219,-0.407L0.221,-0.407C0.246,-0.475 0.29,-0.509 0.353,-0.509C0.369,-0.509 0.382,-0.507 0.391,-0.503L0.391,-0.361Z" style="fill:rgb(0,79,59);fill-rule:nonzero;"/>
            </g>
            <g transform="matrix(287.438,0,0,287.438,976.292,321.254)">
                <path d="M0.481,-0L0.335,-0L0.335,-0.072L0.333,-0.072C0.299,-0.016 0.25,0.012 0.184,0.012C0.136,0.012 0.097,-0.002 0.07,-0.029C0.042,-0.057 0.028,-0.093 0.028,-0.139C0.028,-0.236 0.085,-0.292 0.2,-0.307L0.336,-0.325C0.336,-0.38 0.306,-0.407 0.247,-0.407C0.188,-0.407 0.131,-0.389 0.077,-0.354L0.077,-0.47C0.099,-0.481 0.128,-0.491 0.165,-0.5C0.203,-0.508 0.236,-0.512 0.267,-0.512C0.41,-0.512 0.481,-0.441 0.481,-0.299L0.481,-0ZM0.336,-0.203L0.336,-0.237L0.245,-0.225C0.195,-0.219 0.17,-0.196 0.17,-0.157C0.17,-0.14 0.176,-0.125 0.188,-0.114C0.2,-0.103 0.217,-0.097 0.238,-0.097C0.267,-0.097 0.29,-0.107 0.309,-0.127C0.327,-0.147 0.336,-0.173 0.336,-0.203Z" style="fill:rgb(0,79,59);fill-rule:nonzero;"/>
            </g>
            <g transform="matrix(287.438,0,0,287.438,1130.96,321.254)">
                <path d="M0.143,-0.579C0.117,-0.579 0.096,-0.587 0.079,-0.602C0.063,-0.618 0.054,-0.637 0.054,-0.659C0.054,-0.682 0.063,-0.701 0.079,-0.716C0.096,-0.73 0.117,-0.738 0.143,-0.738C0.169,-0.738 0.191,-0.73 0.207,-0.716C0.224,-0.701 0.232,-0.682 0.232,-0.659C0.232,-0.636 0.224,-0.617 0.207,-0.602C0.191,-0.587 0.169,-0.579 0.143,-0.579ZM0.219,-0L0.065,-0L0.065,-0.5L0.219,-0.5L0.219,-0Z" style="fill:rgb(0,79,59);fill-rule:nonzero;"/>
            </g>
            <g transform="matrix(287.438,0,0,287.438,1212.64,321.254)">
                <path d="M0.548,-0L0.394,-0L0.394,-0.278C0.394,-0.355 0.366,-0.394 0.311,-0.394C0.284,-0.394 0.262,-0.384 0.245,-0.363C0.228,-0.343 0.219,-0.317 0.219,-0.285L0.219,-0L0.065,-0L0.065,-0.5L0.219,-0.5L0.219,-0.421L0.221,-0.421C0.258,-0.482 0.312,-0.512 0.382,-0.512C0.493,-0.512 0.548,-0.444 0.548,-0.306L0.548,-0Z" style="fill:rgb(0,79,59);fill-rule:nonzero;"/>
            </g>
            <g transform="matrix(287.438,0,0,287.438,1465.83,321.254)">
                <path d="M0.655,-0.047C0.586,-0.007 0.501,0.012 0.4,0.012C0.287,0.012 0.198,-0.019 0.134,-0.081C0.069,-0.144 0.036,-0.229 0.036,-0.339C0.036,-0.449 0.072,-0.539 0.143,-0.608C0.214,-0.677 0.308,-0.712 0.426,-0.712C0.5,-0.712 0.565,-0.702 0.622,-0.681L0.622,-0.533C0.568,-0.564 0.502,-0.58 0.424,-0.58C0.358,-0.58 0.305,-0.559 0.264,-0.516C0.223,-0.474 0.202,-0.417 0.202,-0.346C0.202,-0.274 0.221,-0.219 0.258,-0.179C0.295,-0.14 0.344,-0.12 0.407,-0.12C0.445,-0.12 0.475,-0.125 0.497,-0.136L0.497,-0.273L0.357,-0.273L0.357,-0.399L0.655,-0.399L0.655,-0.047Z" style="fill:rgb(0,79,59);fill-rule:nonzero;"/>
            </g>
            <g transform="matrix(287.438,0,0,287.438,1670.18,321.254)">
                <path d="M0.391,-0.361C0.373,-0.371 0.351,-0.376 0.326,-0.376C0.293,-0.376 0.266,-0.364 0.248,-0.339C0.229,-0.315 0.219,-0.281 0.219,-0.239L0.219,-0L0.065,-0L0.065,-0.5L0.219,-0.5L0.219,-0.407L0.221,-0.407C0.246,-0.475 0.29,-0.509 0.353,-0.509C0.369,-0.509 0.382,-0.507 0.391,-0.503L0.391,-0.361Z" style="fill:rgb(0,79,59);fill-rule:nonzero;"/>
            </g>
            <g transform="matrix(287.438,0,0,287.438,1784.57,321.254)">
                <path d="M0.303,0.012C0.22,0.012 0.154,-0.011 0.107,-0.058C0.059,-0.105 0.035,-0.168 0.035,-0.248C0.035,-0.331 0.06,-0.395 0.109,-0.442C0.159,-0.489 0.226,-0.512 0.31,-0.512C0.393,-0.512 0.458,-0.489 0.505,-0.442C0.553,-0.395 0.576,-0.334 0.576,-0.257C0.576,-0.174 0.552,-0.108 0.503,-0.06C0.455,-0.012 0.388,0.012 0.303,0.012ZM0.307,-0.394C0.271,-0.394 0.242,-0.382 0.222,-0.356C0.202,-0.331 0.192,-0.296 0.192,-0.25C0.192,-0.154 0.231,-0.106 0.308,-0.106C0.382,-0.106 0.419,-0.155 0.419,-0.254C0.419,-0.347 0.382,-0.394 0.307,-0.394Z" style="fill:rgb(0,79,59);fill-rule:nonzero;"/>
            </g>
            <g transform="matrix(287.438,0,0,287.438,1960.29,321.254)">
                <path d="M0.54,-0L0.386,-0L0.386,-0.076L0.384,-0.076C0.346,-0.017 0.295,0.012 0.231,0.012C0.115,0.012 0.057,-0.058 0.057,-0.198L0.057,-0.5L0.211,-0.5L0.211,-0.212C0.211,-0.141 0.239,-0.106 0.295,-0.106C0.323,-0.106 0.345,-0.116 0.361,-0.135C0.378,-0.154 0.386,-0.181 0.386,-0.214L0.386,-0.5L0.54,-0.5L0.54,-0Z" style="fill:rgb(0,79,59);fill-rule:nonzero;"/>
            </g>
            <g transform="matrix(287.438,0,0,287.438,2134.18,321.254)">
                <path d="M0.221,-0.058L0.219,-0.058L0.219,0.23L0.065,0.23L0.065,-0.5L0.219,-0.5L0.219,-0.425L0.221,-0.425C0.259,-0.483 0.313,-0.512 0.382,-0.512C0.447,-0.512 0.497,-0.49 0.532,-0.446C0.567,-0.401 0.585,-0.341 0.585,-0.264C0.585,-0.181 0.564,-0.114 0.523,-0.063C0.482,-0.013 0.427,0.012 0.359,0.012C0.299,0.012 0.253,-0.011 0.221,-0.058ZM0.217,-0.263L0.217,-0.223C0.217,-0.189 0.226,-0.16 0.244,-0.139C0.262,-0.117 0.286,-0.106 0.316,-0.106C0.351,-0.106 0.378,-0.12 0.398,-0.147C0.417,-0.174 0.427,-0.212 0.427,-0.262C0.427,-0.35 0.393,-0.394 0.324,-0.394C0.293,-0.394 0.267,-0.382 0.247,-0.358C0.227,-0.334 0.217,-0.303 0.217,-0.263Z" style="fill:rgb(0,79,59);fill-rule:nonzero;"/>
            </g>
        </g>
    </g>
</svg>
